# Blender v2.76 (sub 0) OBJ File: 'BlenderGuru_RuinedEnvironment_StarterFile.blend'
# www.blender.org
mtllib yhdlaatikko.mtl
o Cube.135_Cube.054
v 2.545315 -2.941732 -0.388516
v 2.545315 -2.941732 -2.388516
v 4.545315 -2.941731 -2.388516
v 4.545315 -2.941732 -0.388516
v 2.545315 -0.941732 -0.388516
v 2.545315 -0.941732 -2.388516
v 4.545315 -0.941732 -2.388516
v 4.545315 -0.941732 -0.388516
v 2.520198 -2.936941 -1.482757
v 2.520198 -0.936941 -1.482757
v 2.572124 -0.936941 -1.482757
v 2.572124 -2.936941 -1.482757
v 2.520198 -2.936941 -1.294275
v 2.520198 -0.936941 -1.294275
v 2.572124 -0.936941 -1.294275
v 2.572124 -2.936941 -1.294275
v 3.414900 -2.936941 -0.351460
v 3.414900 -0.936941 -0.351460
v 3.414900 -0.936941 -0.403386
v 3.414900 -2.936941 -0.403386
v 3.603382 -2.936941 -0.351460
v 3.603382 -0.936941 -0.351460
v 3.603382 -0.936941 -0.403386
v 3.603382 -2.936941 -0.403386
v 2.509706 -2.926471 -0.388517
v 2.509706 -2.926471 -2.388517
v 2.561632 -2.926471 -2.388517
v 2.561632 -2.926471 -0.388517
v 2.509706 -2.737989 -0.388517
v 2.509706 -2.737989 -2.388517
v 2.561632 -2.737989 -2.388517
v 2.561632 -2.737989 -0.388517
v 2.509706 -1.124919 -0.388517
v 2.509706 -1.124919 -2.388517
v 2.561632 -1.124919 -2.388517
v 2.561632 -1.124919 -0.388517
v 2.509706 -0.936437 -0.388517
v 2.509706 -0.936437 -2.388517
v 2.561632 -0.936437 -2.388517
v 2.561632 -0.936437 -0.388517
v 4.509142 -1.124919 -0.340969
v 2.509142 -1.124919 -0.340970
v 2.509142 -1.124919 -0.392896
v 4.509142 -1.124919 -0.392895
v 4.509142 -0.936437 -0.340969
v 2.509142 -0.936437 -0.340970
v 2.509142 -0.936437 -0.392896
v 4.509142 -0.936437 -0.392895
v 4.509142 -2.926471 -0.340969
v 2.509142 -2.926471 -0.340970
v 2.509142 -2.926471 -0.392896
v 4.509142 -2.926471 -0.392895
v 4.509142 -2.737989 -0.340969
v 2.509142 -2.737989 -0.340970
v 2.509142 -2.737989 -0.392896
v 4.509142 -2.737989 -0.392895
v 2.509143 -2.926471 -2.442078
v 4.509142 -2.926471 -2.442078
v 4.509142 -2.926471 -2.390152
v 2.509143 -2.926471 -2.390152
v 2.509143 -2.737989 -2.442078
v 4.509142 -2.737989 -2.442078
v 4.509142 -2.737989 -2.390152
v 2.509143 -2.737989 -2.390152
v 2.509143 -1.124919 -2.442077
v 4.509142 -1.124919 -2.442077
v 4.509142 -1.124919 -2.390152
v 2.509143 -1.124919 -2.390152
v 2.509143 -0.936437 -2.442077
v 4.509142 -0.936437 -2.442077
v 4.509142 -0.936437 -2.390152
v 2.509143 -0.936437 -2.390152
v 3.603383 -2.936941 -2.431585
v 3.603383 -0.936941 -2.431585
v 3.603383 -0.936941 -2.379659
v 3.603383 -2.936941 -2.379659
v 3.414901 -2.936941 -2.431585
v 3.414901 -0.936941 -2.431585
v 3.414901 -0.936941 -2.379659
v 3.414901 -2.936941 -2.379659
v 4.588294 -2.936941 -1.300289
v 4.588294 -0.936941 -1.300289
v 4.536368 -0.936941 -1.300289
v 4.536368 -2.936941 -1.300289
v 4.588294 -2.936941 -1.488771
v 4.588294 -0.936941 -1.488771
v 4.536368 -0.936941 -1.488771
v 4.536368 -2.936941 -1.488771
v 4.598786 -1.124919 -2.394530
v 4.598787 -1.124919 -0.394530
v 4.546861 -1.124919 -0.394530
v 4.546860 -1.124919 -2.394530
v 4.598786 -0.936437 -2.394530
v 4.598787 -0.936437 -0.394530
v 4.546861 -0.936437 -0.394530
v 4.546860 -0.936437 -2.394530
v 4.598786 -2.926471 -2.394530
v 4.598787 -2.926471 -0.394530
v 4.546861 -2.926471 -0.394530
v 4.546860 -2.926471 -2.394530
v 4.598786 -2.737989 -2.394530
v 4.598787 -2.737989 -0.394530
v 4.546861 -2.737989 -0.394530
v 4.546860 -2.737989 -2.394530
vt 0.993494 0.003619
vt 1.985783 0.003618
vt 1.985784 0.995908
vt 0.993494 0.995908
vt 0.993494 -0.988670
vt 0.001206 -0.988670
vt 0.001207 -1.980959
vt 0.993495 -1.980957
vt -0.991085 0.003618
vt 0.001205 0.003618
vt 0.001205 0.995908
vt -0.991086 0.995907
vt 0.993494 1.988199
vt 0.001204 1.988199
vt 0.051296 0.624037
vt 0.957639 0.625073
vt 0.957639 0.560722
vt 0.051296 0.559686
vt 0.934089 0.765626
vt 0.934089 0.742966
vt 0.953589 0.742966
vt 0.953589 0.765626
vt 0.957767 0.623619
vt 0.069024 0.624652
vt 0.069024 0.560302
vt 0.957767 0.559269
vt 0.051296 0.492612
vt 0.069024 0.493228
vt 0.053870 0.742966
vt 0.053870 0.765626
vn -1.000000 0.000000 -0.000000
vn -0.000000 0.000000 -1.000000
vn 1.000000 0.000000 0.000000
vn 0.000000 0.000000 1.000000
vn 0.000000 -1.000000 -0.000000
vn -0.000000 1.000000 0.000000
usemtl Material.008
s off
f 5/1/1 6/2/1 2/3/1 1/4/1
f 6/5/2 7/6/2 3/7/2 2/8/2
f 7/9/3 8/10/3 4/11/3 3/12/3
f 8/10/4 5/1/4 1/4/4 4/11/4
f 1/4/5 2/13/5 3/14/5 4/11/5
f 8/10/6 7/6/6 6/5/6 5/1/6
f 13/15/1 14/16/1 10/17/1 9/18/1
f 14/19/6 15/20/6 11/21/6 10/22/6
f 15/23/3 16/24/3 12/25/3 11/26/3
f 16/24/5 13/15/5 9/18/5 12/25/5
f 9/18/2 10/27/2 11/28/2 12/25/2
f 16/29/4 15/20/4 14/19/4 13/30/4
f 21/15/4 22/16/4 18/17/4 17/18/4
f 22/19/6 23/20/6 19/21/6 18/22/6
f 23/23/2 24/24/2 20/25/2 19/26/2
f 24/24/5 21/15/5 17/18/5 20/25/5
f 17/18/1 18/27/1 19/28/1 20/25/1
f 24/29/3 23/20/3 22/19/3 21/30/3
f 29/15/1 30/16/1 26/17/1 25/18/1
f 30/19/2 31/20/2 27/21/2 26/22/2
f 31/23/3 32/24/3 28/25/3 27/26/3
f 32/24/4 29/15/4 25/18/4 28/25/4
f 25/18/5 26/27/5 27/28/5 28/25/5
f 32/29/6 31/20/6 30/19/6 29/30/6
f 37/15/1 38/16/1 34/17/1 33/18/1
f 38/19/2 39/20/2 35/21/2 34/22/2
f 39/23/3 40/24/3 36/25/3 35/26/3
f 40/24/4 37/15/4 33/18/4 36/25/4
f 33/18/5 34/27/5 35/28/5 36/25/5
f 40/29/6 39/20/6 38/19/6 37/30/6
f 45/15/4 46/16/4 42/17/4 41/18/4
f 46/19/1 47/20/1 43/21/1 42/22/1
f 47/23/2 48/24/2 44/25/2 43/26/2
f 48/24/3 45/15/3 41/18/3 44/25/3
f 41/18/5 42/27/5 43/28/5 44/25/5
f 48/29/6 47/20/6 46/19/6 45/30/6
f 53/15/4 54/16/4 50/17/4 49/18/4
f 54/19/1 55/20/1 51/21/1 50/22/1
f 55/23/2 56/24/2 52/25/2 51/26/2
f 56/24/3 53/15/3 49/18/3 52/25/3
f 49/18/5 50/27/5 51/28/5 52/25/5
f 56/29/6 55/20/6 54/19/6 53/30/6
f 61/15/2 62/16/2 58/17/2 57/18/2
f 62/19/3 63/20/3 59/21/3 58/22/3
f 63/23/4 64/24/4 60/25/4 59/26/4
f 64/24/1 61/15/1 57/18/1 60/25/1
f 57/18/5 58/27/5 59/28/5 60/25/5
f 64/29/6 63/20/6 62/19/6 61/30/6
f 69/15/2 70/16/2 66/17/2 65/18/2
f 70/19/3 71/20/3 67/21/3 66/22/3
f 71/23/4 72/24/4 68/25/4 67/26/4
f 72/24/1 69/15/1 65/18/1 68/25/1
f 65/18/5 66/27/5 67/28/5 68/25/5
f 72/29/6 71/20/6 70/19/6 69/30/6
f 77/15/2 78/16/2 74/17/2 73/18/2
f 78/19/6 79/20/6 75/21/6 74/22/6
f 79/23/4 80/24/4 76/25/4 75/26/4
f 80/24/5 77/15/5 73/18/5 76/25/5
f 73/18/3 74/27/3 75/28/3 76/25/3
f 80/29/1 79/20/1 78/19/1 77/30/1
f 85/15/3 86/16/3 82/17/3 81/18/3
f 86/19/6 87/20/6 83/21/6 82/22/6
f 87/23/1 88/24/1 84/25/1 83/26/1
f 88/24/5 85/15/5 81/18/5 84/25/5
f 81/18/4 82/27/4 83/28/4 84/25/4
f 88/29/2 87/20/2 86/19/2 85/30/2
f 93/15/3 94/16/3 90/17/3 89/18/3
f 94/19/4 95/20/4 91/21/4 90/22/4
f 95/23/1 96/24/1 92/25/1 91/26/1
f 96/24/2 93/15/2 89/18/2 92/25/2
f 89/18/5 90/27/5 91/28/5 92/25/5
f 96/29/6 95/20/6 94/19/6 93/30/6
f 101/15/3 102/16/3 98/17/3 97/18/3
f 102/19/4 103/20/4 99/21/4 98/22/4
f 103/23/1 104/24/1 100/25/1 99/26/1
f 104/24/2 101/15/2 97/18/2 100/25/2
f 97/18/5 98/27/5 99/28/5 100/25/5
f 104/29/6 103/20/6 102/19/6 101/30/6
